<?xml version="1.0" encoding="UTF-8" standalone="no"?>
<!-- Created with Inkscape (http://www.inkscape.org/) -->

<svg
   xmlns:dc="http://purl.org/dc/elements/1.1/"
   xmlns:cc="http://creativecommons.org/ns#"
   xmlns:rdf="http://www.w3.org/1999/02/22-rdf-syntax-ns#"
   xmlns:svg="http://www.w3.org/2000/svg"
   xmlns="http://www.w3.org/2000/svg"
   xmlns:xlink="http://www.w3.org/1999/xlink"
   xmlns:sodipodi="http://sodipodi.sourceforge.net/DTD/sodipodi-0.dtd"
   xmlns:inkscape="http://www.inkscape.org/namespaces/inkscape"
   id="svg2"
   sodipodi:version="0.32"
   inkscape:version="0.48.2 r9819"
   width="512"
   height="512"
   version="1.0"
   sodipodi:docname="logo.svg"
   style="display:inline"
   inkscape:output_extension="org.inkscape.output.svg.inkscape"
   inkscape:export-filename="W:\bugz\themes\logo.png"
   inkscape:export-xdpi="11.961186"
   inkscape:export-ydpi="11.961186">
  <metadata
     id="metadata7">
    <rdf:RDF>
      <cc:Work
         rdf:about="">
        <dc:format>image/svg+xml</dc:format>
        <dc:type
           rdf:resource="http://purl.org/dc/dcmitype/StillImage" />
        <dc:title></dc:title>
      </cc:Work>
    </rdf:RDF>
  </metadata>
  <defs
     id="defs5">
    <linearGradient
       id="linearGradient4551">
      <stop
         id="stop4553"
         offset="0"
         style="stop-color:#25bbf9;stop-opacity:1" />
      <stop
         style="stop-color:#1374a6;stop-opacity:1;"
         offset="0.30000001"
         id="stop4555" />
      <stop
         id="stop4557"
         offset="1"
         style="stop-color:#012d54;stop-opacity:1" />
    </linearGradient>
    <linearGradient
       id="linearGradient4506">
      <stop
         id="stop4508"
         offset="0"
         style="stop-color:#25bbf9;stop-opacity:1" />
      <stop
         style="stop-color:#1374a6;stop-opacity:1;"
         offset="0.28056005"
         id="stop4510" />
      <stop
         id="stop4512"
         offset="1"
         style="stop-color:#012d54;stop-opacity:1" />
    </linearGradient>
    <linearGradient
       id="linearGradient4244"
       inkscape:collect="always">
      <stop
         id="stop4246"
         offset="0"
         style="stop-color:#ffffff;stop-opacity:0" />
      <stop
         style="stop-color:#e9e9e9;stop-opacity:0.41960784;"
         offset="0.16457066"
         id="stop4248" />
      <stop
         id="stop4250"
         offset="1"
         style="stop-color:#b3b3b3;stop-opacity:1" />
    </linearGradient>
    <linearGradient
       id="linearGradient3370">
      <stop
         style="stop-color:#25bbf9;stop-opacity:1"
         offset="0"
         id="stop3372" />
      <stop
         id="stop3378"
         offset="0.32916674"
         style="stop-color:#1374a6;stop-opacity:1;" />
      <stop
         style="stop-color:#012d54;stop-opacity:1"
         offset="1"
         id="stop3374" />
    </linearGradient>
    <inkscape:perspective
       sodipodi:type="inkscape:persp3d"
       inkscape:vp_x="0 : 526.18109 : 1"
       inkscape:vp_y="0 : 1000 : 0"
       inkscape:vp_z="744.09448 : 526.18109 : 1"
       inkscape:persp3d-origin="372.04724 : 350.78739 : 1"
       id="perspective9" />
    <linearGradient
       inkscape:collect="always"
       xlink:href="#linearGradient3370"
       id="linearGradient3376"
       x1="240.47862"
       y1="47.3125"
       x2="240.47862"
       y2="183.4498"
       gradientUnits="userSpaceOnUse"
       gradientTransform="translate(10,-126)" />
    <linearGradient
       inkscape:collect="always"
       xlink:href="#linearGradient4551"
       id="linearGradient4549"
       x1="427.30618"
       y1="3.9687328"
       x2="427.30618"
       y2="68.502304"
       gradientUnits="userSpaceOnUse"
       gradientTransform="translate(10,-126)" />
    <inkscape:perspective
       id="perspective4623"
       inkscape:persp3d-origin="372.04724 : 350.78739 : 1"
       inkscape:vp_z="744.09448 : 526.18109 : 1"
       inkscape:vp_y="0 : 1000 : 0"
       inkscape:vp_x="0 : 526.18109 : 1"
       sodipodi:type="inkscape:persp3d" />
    <linearGradient
       inkscape:collect="always"
       xlink:href="#linearGradient4244"
       id="linearGradient2443"
       gradientUnits="userSpaceOnUse"
       gradientTransform="translate(-2,1.9999924)"
       x1="28.13291"
       y1="224.87094"
       x2="467.75003"
       y2="224.87094" />
    <linearGradient
       inkscape:collect="always"
       xlink:href="#linearGradient4244"
       id="linearGradient2420"
       gradientUnits="userSpaceOnUse"
       gradientTransform="matrix(0.731167,0,0,1,123.139,51.499996)"
       x1="28.13291"
       y1="224.87094"
       x2="467.75003"
       y2="224.87094" />
  </defs>
  <sodipodi:namedview
     inkscape:window-height="777"
     inkscape:window-width="1135"
     inkscape:pageshadow="2"
     inkscape:pageopacity="0.0"
     guidetolerance="10.0"
     gridtolerance="10.0"
     objecttolerance="10.0"
     borderopacity="1.0"
     bordercolor="#666666"
     pagecolor="#ffffff"
     id="base"
     showgrid="false"
     inkscape:zoom="0.38698395"
     inkscape:cx="544.69109"
     inkscape:cy="331.09738"
     inkscape:current-layer="layer7"
     showguides="false"
     inkscape:window-x="76"
     inkscape:window-y="171"
     inkscape:window-maximized="0" />
  <g
     inkscape:groupmode="layer"
     id="layer1"
     inkscape:label="wek"
     style="display:inline"
     transform="translate(0,163)">
    <g
       inkscape:groupmode="layer"
       id="layer8"
       inkscape:label="budujemy pb">
      <g
         inkscape:groupmode="layer"
         id="layer10"
         inkscape:label="cień bpb"
         style="display:inline" />
      <g
         inkscape:groupmode="layer"
         id="layer9"
         inkscape:label="napis"
         style="display:inline" />
    </g>
    <g
       inkscape:groupmode="layer"
       id="layer7"
       inkscape:label="bug"
       style="display:inline">
      <path
         style="fill:url(#linearGradient4549);fill-opacity:1;display:inline"
         d="m 444.4375,-122.03125 c -2.88633,-0.007 -5.24925,1.89865 -6.46875,5.59375 -0.64886,1.96607 -1.00481,3.70111 -0.8125,3.84375 0.19231,0.14264 2.04132,1.27779 4.125,2.53125 3.31954,1.99691 4.16028,2.1352 6.75,1.0625 2.48163,-1.02792 3.34802,-0.9833 5.46875,0.40625 3.15468,2.06702 8.33621,9.139433 9.1875,12.53125 0.35241,1.40414 0.83633,1.990982 1.0625,1.3125 1.20113,-3.603383 -6.41832,-18.82323 -11.90625,-23.78125 -2.59372,-2.34327 -5.16133,-3.49486 -7.40625,-3.5 z m -36.78125,4.0625 c -5.07006,0.0702 -7.66958,1.21869 -8.25,3.53125 -1.00058,3.98661 1.41092,8.08477 8.8125,14.9375 7.44184,6.890003 15.94793,12.131636 26,16 9.43646,3.631455 10.19547,2.922668 1.6875,-1.5625 -12.35057,-6.510888 -22.91261,-17.12373 -21.28125,-21.375 3.43361,-8.94784 38.76119,6.61276 47.53125,20.9375 1.32631,2.166354 1.84106,2.487067 1.84375,1.1875 0.0222,-10.700379 -31.58424,-31.61445 -50.4375,-33.375 -2.25518,-0.21059 -4.21623,-0.30464 -5.90625,-0.28125 z m 62.25,30.1875 c -0.48076,0.02121 -0.92355,0.05863 -1.3125,0.15625 -1.95399,0.490422 -2.59375,1.29476 -2.59375,3.25 0,2.446328 0.2056,2.559456 3.6875,1.90625 3.35416,-0.629246 3.56038,-0.534859 2.3125,0.96875 -1.98262,2.388909 -7.77358,5.15346 -19.09375,9.09375 -5.46545,1.9024 -12.53581,4.570462 -15.6875,5.9375 -5.09685,2.210732 -5.44236,2.257449 -3.21875,0.4375 1.375,-1.125391 5.77836,-3.986392 9.78125,-6.375 7.69279,-4.590448 7.72182,-5.59375 0.25,-5.59375 -2.85593,0 -5.59624,1.2094 -11.15625,4.875 -12.48458,8.230827 -15.40541,12.789724 -9.65625,15.09375 3.40284,1.363718 8.07728,0.250429 20.78125,-4.9375 6.325,-2.582944 14.65,-5.644477 18.5,-6.8125 12.44547,-3.775741 20.78398,-10.768213 17.53125,-14.6875 -1.54035,-1.856017 -6.75965,-3.460985 -10.125,-3.3125 z"
         id="path4514"
         sodipodi:nodetypes="cssssssssccssssssssccssssssssssssssc"
         inkscape:connector-curvature="0" />
      <path
         style="fill:#dddddd;fill-opacity:0.86666667;display:inline"
         d="m 393.45046,-119.68514 c 4.15305,-5.45481 18.29644,-2.11464 23.8444,-0.89029 -24.96807,-0.0505 -26.3053,2.48624 -13.37955,20.27471 -4.86111,-4.32839 -15.01082,-13.41353 -10.46485,-19.38442 z m 45.41575,-4.95158 c 4.09684,-2.4436 9.50746,-0.16094 11.76381,2.7385 -8.10284,-3.92956 -13.85082,-0.57462 -15.21452,8.6902 -0.90737,-2.3649 -0.95517,-8.80077 3.45071,-11.4287 z"
         id="path2422"
         sodipodi:nodetypes="cccscccs"
         inkscape:connector-curvature="0" />
      <text
         xml:space="preserve"
         style="font-size:40px;font-style:normal;font-variant:normal;font-weight:normal;font-stretch:normal;line-height:125%;letter-spacing:0px;word-spacing:0px;fill:#000000;fill-opacity:1;stroke:none;font-family:Rockwell Condensed;-inkscape-font-specification:Rockwell Condensed"
         x="47.805595"
         y="281.81375"
         id="text3063"
         sodipodi:linespacing="125%"><tspan
           sodipodi:role="line"
           id="tspan3065"
           x="47.805595"
           y="281.81375"
           style="font-size:144px;font-style:normal;font-variant:normal;font-weight:normal;font-stretch:normal;font-family:Rockwell Condensed;-inkscape-font-specification:Rockwell Condensed">RejsZ</tspan></text>
      <path
         style="fill:none;stroke:#a05a2c;stroke-width:2.6;stroke-linecap:butt;stroke-linejoin:miter;stroke-opacity:1;stroke-miterlimit:4;stroke-dasharray:none"
         d="m 396.88568,277.38332 -10.56475,211.3599 58.15201,-13.59839 20.66263,12.30635 -30.55223,-211.28154 z"
         id="path3135"
         inkscape:connector-curvature="0"
         transform="translate(0,-163)"
         sodipodi:nodetypes="cccccc" />
      <path
         style="fill:none;stroke:#803300;stroke-width:4.3;stroke-linecap:butt;stroke-linejoin:miter;stroke-opacity:1;stroke-miterlimit:4;stroke-dasharray:none"
         d="m 418.62201,275.55609 3.10583,232.52302 1.52716,-1.39059 40.58853,-19.23734 -42.63743,20.67269 -34.56216,-19.38064"
         id="path3137"
         inkscape:connector-curvature="0"
         transform="translate(0,-163)"
         sodipodi:nodetypes="cccccc" />
      <rect
         id="rect3143"
         width="30.834423"
         height="39.742146"
         x="450.54291"
         y="126.12782"
         transform="matrix(0.99923606,-0.0390806,0.0390806,0.99923606,0,0)"
         style="fill:#803300" />
      <path
         style="fill:#ff6600;stroke:#000000;stroke-width:0.86879277px;stroke-linecap:butt;stroke-linejoin:miter;stroke-opacity:1"
         d="m 177.65974,140.91544 c -2.01654,2.00251 -1.24679,5.03943 -1.30326,7.56953 0.006,10.71276 0.48361,17.52051 0.48361,17.52051 l -3.92711,6.1325 5.80171,2.9564 3.55945,-4.27006 c -1.15205,-1.82342 -1.8033,-2.06263 -5.35267,-5.57489"
         id="path3147"
         inkscape:connector-curvature="0"
         sodipodi:nodetypes="ccccccc" />
      <path
         style="fill:#ff6600;stroke:#000000;stroke-width:1px;stroke-linecap:butt;stroke-linejoin:miter;stroke-opacity:1"
         d="m 118.86798,252.29931 3.87613,58.14194 257.11661,-32.30108 109.82367,-5.16817 -1.29204,-31.00904 -129.20433,6.46022 z"
         id="path3133"
         inkscape:connector-curvature="0"
         transform="translate(0,-163)" />
    </g>
    <g
       inkscape:groupmode="layer"
       id="layer6"
       inkscape:label="MOL"
       style="display:inline">
      <g
         inkscape:groupmode="layer"
         id="layer12"
         inkscape:label="napis MOL"
         style="display:inline">
        <path
           style="fill:#169edb;display:inline"
           d="m 381,-78.6875 c -12.47571,10e-7 -16.5,5.05602 -16.5,11.5 l 0.21875,86.21875 c 0.25879,5.34062 1.35145,10.5772 4.03125,15.21875 7.61506,13.18968 21.38214,22.40625 43.71875,22.40625 l 47.6875,0 c 4.93838,0 9.9375,-2.00448 9.9375,-9.34375 C 470.09374,39.85906 465.18489,38 460.15625,38 L 415.5,38 C 403.98353,38 397.84375,29.09718 397.84375,21.28125 L 397.5,-67.1875 c 0,-6.67193 -4.1385,-11.5 -16.5,-11.5 z M 90.5,-77.75 c -30.939168,0 -52.5625,12.60188 -52.5625,44.96875 l 0,81.03125 c 0,4.70873 3.204819,9.15625 16.53125,9.15625 C 67.844238,57.40625 71,52.64232 71,48.25 l 0.25,-88.03125 c 0.07216,-25.58773 38.53125,-25.20227 38.53125,0 l 0,88.03125 c 0,5.04248 2.92888,9.15625 17.09375,9.15625 14.17775,0 17.09375,-4.24788 17.09375,-9.15625 l 0,-88.03125 c 0,-24.99568 38.40625,-25.65359 38.40625,0 l 0,88.03125 c 0,4.84032 3.54867,9.15625 16.75,9.15625 13.2192,0 16.78125,-4.7657 16.78125,-9.15625 l 0,-81.03125 c 0,-31.60922 -22.43684,-44.96875 -52.75,-44.96875 -13.3209,0 -25.94796,2.5398 -36.28125,8.875 -10.56712,-6.93257 -20.51005,-8.875 -36.375,-8.875 z m 198.90625,0.09375 C 252.02122,-77.656252 237.5,-58.50982 237.5,-37.6875 l 0,51.21875 c 0,23.04558 12.16817,42.63143 49.8125,43.34375 C 325.18515,57.59164 342.5,38.74818 342.5,13.53125 L 342,-37.6875 c 0,-20.80967 -14.75192,-39.96875 -52.59375,-39.96875 z m 0.4375,19.40625 c 9.7688,-0.15909 19.53125,5.59481 19.53125,18 l 0.25,60.78125 c 0,23.76334 -39.0625,22.26974 -39.0625,0 l -0.25,-61.40625 c 0,-11.1478 9.76245,-17.21591 19.53125,-17.375 z"
           id="path2563"
           inkscape:connector-curvature="0" />
      </g>
      <g
         inkscape:groupmode="layer"
         id="layer11"
         inkscape:label="cień MOL"
         style="display:inline">
        <path
           sodipodi:type="inkscape:offset"
           inkscape:radius="5.024869"
           inkscape:original="M 381 -78.6875 C 368.52429 -78.687499 364.5 -73.63148 364.5 -67.1875 L 364.71875 19.03125 C 364.97754 24.37187 366.0702 29.60845 368.75 34.25 C 376.36506 47.43968 390.13214 56.65625 412.46875 56.65625 L 460.15625 56.65625 C 465.09463 56.65625 470.09375 54.65177 470.09375 47.3125 C 470.09374 39.85906 465.18489 38 460.15625 38 L 415.5 38 C 403.98353 38 397.84375 29.09718 397.84375 21.28125 L 397.5 -67.1875 C 397.5 -73.85943 393.3615 -78.6875 381 -78.6875 z M 90.5 -77.75 C 59.560832 -77.75 37.9375 -65.14812 37.9375 -32.78125 L 37.9375 48.25 C 37.9375 52.95873 41.142319 57.40625 54.46875 57.40625 C 67.844238 57.40625 71 52.64232 71 48.25 L 71.25 -39.78125 C 71.32216 -65.36898 109.78125 -64.98352 109.78125 -39.78125 L 109.78125 48.25 C 109.78125 53.29248 112.71013 57.40625 126.875 57.40625 C 141.05275 57.40625 143.96875 53.15837 143.96875 48.25 L 143.96875 -39.78125 C 143.96875 -64.77693 182.375 -65.43484 182.375 -39.78125 L 182.375 48.25 C 182.375 53.09032 185.92367 57.40625 199.125 57.40625 C 212.3442 57.40625 215.90625 52.64055 215.90625 48.25 L 215.90625 -32.78125 C 215.90625 -64.39047 193.46941 -77.75 163.15625 -77.75 C 149.83535 -77.75 137.20829 -75.2102 126.875 -68.875 C 116.30788 -75.80757 106.36495 -77.75 90.5 -77.75 z M 289.40625 -77.65625 C 252.02122 -77.656252 237.5 -58.50982 237.5 -37.6875 L 237.5 13.53125 C 237.5 36.57683 249.66817 56.16268 287.3125 56.875 C 325.18515 57.59164 342.5 38.74818 342.5 13.53125 L 342 -37.6875 C 342 -58.49717 327.24808 -77.65625 289.40625 -77.65625 z M 289.84375 -58.25 C 299.61255 -58.40909 309.375 -52.65519 309.375 -40.25 L 309.625 20.53125 C 309.625 44.29459 270.5625 42.80099 270.5625 20.53125 L 270.3125 -40.875 C 270.3125 -52.0228 280.07495 -58.09091 289.84375 -58.25 z "
           xlink:href="#path2595"
           style="fill:#dddddd;fill-opacity:0.86666667;display:inline"
           id="path2598"
           inkscape:href="#path2595"
           d="m 381,-81.71875 c -6.91666,10e-7 -12.25779,1.374452 -16.09375,4.46875 -3.83596,3.094298 -5.4375,7.794493 -5.4375,12.0625 l 0.21875,86.21875 a 5.0253715,5.0253715 0 0 0 0,0.25 c 0.2842,5.864981 1.51642,11.922149 4.71875,17.46875 8.41947,14.582955 24.34364,24.9375 48.0625,24.9375 l 47.6875,0 c 3.14905,0 6.75213,-0.564872 9.875,-2.9375 3.12287,-2.372628 5.09375,-6.626974 5.09375,-11.4375 -10e-6,-4.829849 -1.94436,-9.098903 -5.09375,-11.46875 -3.14939,-2.369847 -6.74146,-2.875 -9.875,-2.875 l -44.65625,0 c -8.92682,0 -12.625,-6.503084 -12.625,-11.6875 a 5.0253715,5.0253715 0 0 0 0,-0.03125 l -0.34375,-88.4375 c 0,-0.01023 2e-5,-0.02102 0,-0.03125 -0.008,-4.366463 -1.67247,-9.103389 -5.53125,-12.15625 -3.86782,-3.060015 -9.16506,-4.34375 -16,-4.34375 z m -290.5,0.9375 c -16.151813,0 -30.440283,3.235816 -40.96875,11.40625 -10.528467,8.170434 -16.625,21.291327 -16.625,38.59375 l 0,81.03125 c 0,3.494361 1.654129,7.86093 5.4375,10.46875 3.783371,2.60782 8.90279,3.71875 16.125,3.71875 7.284311,0 12.443762,-1.227899 16.1875,-3.875 3.743738,-2.647101 5.375,-6.91293 5.375,-10.3125 l 0.25,-88.03125 c 0.01449,-5.138158 1.774724,-8.311315 4.34375,-10.5625 2.569026,-2.251185 6.199277,-3.487309 9.90625,-3.46875 3.706973,0.01856 7.330257,1.290962 9.90625,3.5625 2.57599,2.271538 4.3125,5.446188 4.3125,10.46875 l 0,88.03125 c 0,3.494124 1.59891,8.070801 5.5,10.65625 3.90109,2.585449 9.05612,3.53125 16.625,3.53125 7.59072,0 12.77197,-0.991746 16.65625,-3.59375 C 147.41553,58.241746 149,53.699255 149,50.25 l 0,-88.03125 c 0,-4.962122 1.70514,-8.102766 4.28125,-10.375 2.57611,-2.272234 6.24104,-3.562089 9.9375,-3.59375 3.69646,-0.03166 7.29808,1.1754 9.84375,3.40625 2.54567,2.23085 4.28125,5.4029 4.28125,10.5625 l 0,88.03125 c 0,3.648151 1.85179,8.047996 5.6875,10.59375 3.83571,2.545754 8.94549,3.59375 16.09375,3.59375 7.21344,0 12.40099,-1.221199 16.1875,-3.8125 3.78651,-2.591301 5.625,-6.820834 5.625,-10.375 l 0,-81.03125 c 0,-16.993527 -6.35891,-30.08162 -16.96875,-38.3125 -10.60984,-8.23088 -24.91774,-11.6875 -40.8125,-11.6875 -12.89596,0 -25.3774,2.43822 -36.1875,8.28125 -10.56758,-6.180296 -21.44551,-8.28125 -36.46875,-8.28125 z m 198.90625,0.09375 c -19.55033,-10e-7 -33.87189,5.067357 -43.3125,13.46875 -9.44061,8.401393 -13.625,19.951997 -13.625,31.53125 l 0,51.21875 c 0,12.407174 3.37158,24.548146 12.25,33.5625 8.87842,9.014354 22.81708,14.440053 42.5,14.8125 19.78373,0.374355 34.91309,-4.370415 45.15625,-13.15625 10.24316,-8.785835 15.15625,-21.4602 15.15625,-35.21875 a 5.0253715,5.0253715 0 0 0 0,-0.0625 l -0.5,-51.15625 c 0,-0.02074 3e-5,-0.04176 0,-0.0625 -0.0152,-11.57141 -4.27083,-23.122648 -13.8125,-31.5 -9.55878,-8.392368 -24.04357,-13.4375 -43.8125,-13.4375 z m 0.53125,29.46875 c 3.87098,-0.06304 7.59231,1.077186 10.15625,3.15625 2.56394,2.079064 4.25,4.928037 4.25,9.8125 a 5.0253715,5.0253715 0 0 0 0,0.03125 l 0.25,60.75 0,0.03125 c -0.008,4.543119 -1.60482,7.168028 -4.15625,9.15625 -2.55783,1.993214 -6.35357,3.136992 -10.25,3.0625 -3.89643,-0.07449 -7.77325,-1.35215 -10.40625,-3.4375 -2.633,-2.08535 -4.1875,-4.714053 -4.1875,-8.8125 a 5.0253715,5.0253715 0 0 0 0,-0.03125 l -0.25,-61.375 0,-0.03125 c 0.009,-4.087902 1.58788,-6.73832 4.21875,-8.84375 2.63813,-2.111236 6.50337,-3.405699 10.375,-3.46875 z" />
        <path
           id="path2595"
           d="m 381,-78.6875 c -12.47571,10e-7 -16.5,5.05602 -16.5,11.5 l 0.21875,86.21875 c 0.25879,5.34062 1.35145,10.5772 4.03125,15.21875 7.61506,13.18968 21.38214,22.40625 43.71875,22.40625 l 47.6875,0 c 4.93838,0 9.9375,-2.00448 9.9375,-9.34375 C 470.09374,39.85906 465.18489,38 460.15625,38 L 415.5,38 C 403.98353,38 397.84375,29.09718 397.84375,21.28125 L 397.5,-67.1875 c 0,-6.67193 -4.1385,-11.5 -16.5,-11.5 z M 90.5,-77.75 c -30.939168,0 -52.5625,12.60188 -52.5625,44.96875 l 0,81.03125 c 0,4.70873 3.204819,9.15625 16.53125,9.15625 C 67.844238,57.40625 71,52.64232 71,48.25 l 0.25,-88.03125 c 0.07216,-25.58773 38.53125,-25.20227 38.53125,0 l 0,88.03125 c 0,5.04248 2.92888,9.15625 17.09375,9.15625 14.17775,0 17.09375,-4.24788 17.09375,-9.15625 l 0,-88.03125 c 0,-24.99568 38.40625,-25.65359 38.40625,0 l 0,88.03125 c 0,4.84032 3.54867,9.15625 16.75,9.15625 13.2192,0 16.78125,-4.7657 16.78125,-9.15625 l 0,-81.03125 c 0,-31.60922 -22.43684,-44.96875 -52.75,-44.96875 -13.3209,0 -25.94796,2.5398 -36.28125,8.875 -10.56712,-6.93257 -20.51005,-8.875 -36.375,-8.875 z m 198.90625,0.09375 C 252.02122,-77.656252 237.5,-58.50982 237.5,-37.6875 l 0,51.21875 c 0,23.04558 12.16817,42.63143 49.8125,43.34375 C 325.18515,57.59164 342.5,38.74818 342.5,13.53125 L 342,-37.6875 c 0,-20.80967 -14.75192,-39.96875 -52.59375,-39.96875 z m 0.4375,19.40625 c 9.7688,-0.15909 19.53125,5.59481 19.53125,18 l 0.25,60.78125 c 0,23.76334 -39.0625,22.26974 -39.0625,0 l -0.25,-61.40625 c 0,-11.1478 9.76245,-17.21591 19.53125,-17.375 z"
           style="fill:url(#linearGradient3376);fill-opacity:1;display:inline"
           inkscape:connector-curvature="0" />
      </g>
    </g>
  </g>
</svg>
