<?xml version="1.0" encoding="UTF-8" standalone="no"?>
<!-- Created with Inkscape (http://www.inkscape.org/) -->

<svg
   xmlns:dc="http://purl.org/dc/elements/1.1/"
   xmlns:cc="http://creativecommons.org/ns#"
   xmlns:rdf="http://www.w3.org/1999/02/22-rdf-syntax-ns#"
   xmlns:svg="http://www.w3.org/2000/svg"
   xmlns="http://www.w3.org/2000/svg"
   xmlns:xlink="http://www.w3.org/1999/xlink"
   xmlns:sodipodi="http://sodipodi.sourceforge.net/DTD/sodipodi-0.dtd"
   xmlns:inkscape="http://www.inkscape.org/namespaces/inkscape"
   width="64"
   height="64"
   id="svg2"
   version="1.1"
   inkscape:version="0.47 r22583"
   sodipodi:docname="note_internal.svg"
   inkscape:export-filename="D:\_WWW\!_serwer_root\mol\www\bibz_admins\plugins\dokuwiki\img\note_internal.png"
   inkscape:export-xdpi="30.940001"
   inkscape:export-ydpi="30.940001">
  <defs
     id="defs4">
    <inkscape:perspective
       sodipodi:type="inkscape:persp3d"
       inkscape:vp_x="0 : 526.18109 : 1"
       inkscape:vp_y="0 : 1000 : 0"
       inkscape:vp_z="744.09448 : 526.18109 : 1"
       inkscape:persp3d-origin="372.04724 : 350.78739 : 1"
       id="perspective10" />
    <inkscape:perspective
       id="perspective2859"
       inkscape:persp3d-origin="0.5 : 0.33333333 : 1"
       inkscape:vp_z="1 : 0.5 : 1"
       inkscape:vp_y="0 : 1000 : 0"
       inkscape:vp_x="0 : 0.5 : 1"
       sodipodi:type="inkscape:persp3d" />
    <linearGradient
       inkscape:collect="always"
       xlink:href="#linearGradient4551"
       id="linearGradient4549"
       x1="427.30618"
       y1="3.9687328"
       x2="427.30618"
       y2="68.502304"
       gradientUnits="userSpaceOnUse"
       gradientTransform="translate(-2,2)" />
    <linearGradient
       id="linearGradient4551">
      <stop
         id="stop4553"
         offset="0"
         style="stop-color:#25bbf9;stop-opacity:1" />
      <stop
         style="stop-color:#1374a6;stop-opacity:1;"
         offset="0.30000001"
         id="stop4555" />
      <stop
         id="stop4557"
         offset="1"
         style="stop-color:#012d54;stop-opacity:1" />
    </linearGradient>
    <linearGradient
       y2="68.502304"
       x2="427.30618"
       y1="3.9687328"
       x1="427.30618"
       gradientTransform="translate(-404.93045,1014.916)"
       gradientUnits="userSpaceOnUse"
       id="linearGradient2870"
       xlink:href="#linearGradient4551"
       inkscape:collect="always" />
    <linearGradient
       inkscape:collect="always"
       xlink:href="#linearGradient4551"
       id="linearGradient3649"
       gradientUnits="userSpaceOnUse"
       gradientTransform="translate(-404.93045,1014.916)"
       x1="427.30618"
       y1="3.9687328"
       x2="427.30618"
       y2="68.502304" />
  </defs>
  <sodipodi:namedview
     id="base"
     pagecolor="#ffffff"
     bordercolor="#666666"
     borderopacity="1.0"
     inkscape:pageopacity="0.0"
     inkscape:pageshadow="2"
     inkscape:zoom="2.0107947"
     inkscape:cx="40.321536"
     inkscape:cy="101.11181"
     inkscape:document-units="px"
     inkscape:current-layer="layer1"
     showgrid="false"
     inkscape:window-width="1680"
     inkscape:window-height="990"
     inkscape:window-x="1276"
     inkscape:window-y="-4"
     inkscape:window-maximized="1" />
  <metadata
     id="metadata7">
    <rdf:RDF>
      <cc:Work
         rdf:about="">
        <dc:format>image/svg+xml</dc:format>
        <dc:type
           rdf:resource="http://purl.org/dc/dcmitype/StillImage" />
        <dc:title></dc:title>
      </cc:Work>
    </rdf:RDF>
  </metadata>
  <g
     inkscape:label="Layer 1"
     inkscape:groupmode="layer"
     id="layer1"
     transform="translate(0,-988.36218)">
    <rect
       ry="0"
       rx="0"
       y="1000.8038"
       x="14.57774"
       height="46.214481"
       width="43.212883"
       id="rect3619"
       style="fill:#cccccc;fill-opacity:1;stroke:#cccccc;stroke-width:4;stroke-linecap:round;stroke-linejoin:miter;stroke-miterlimit:4;stroke-opacity:1;stroke-dasharray:none" />
    <rect
       style="fill:#eeffee;fill-opacity:1;stroke:#619c61;stroke-width:4;stroke-linecap:round;stroke-linejoin:miter;stroke-miterlimit:4;stroke-opacity:1;stroke-dasharray:none"
       id="kartka"
       width="43.212883"
       height="46.214481"
       x="10.57774"
       y="8.4416103"
       transform="translate(0,988.36218)"
       rx="0"
       ry="0" />
    <path
       style="fill:#d5ffd7;fill-opacity:1;stroke:#7c9d7c;stroke-width:4;stroke-linecap:butt;stroke-linejoin:miter;stroke-miterlimit:4;stroke-opacity:1;stroke-dasharray:none"
       d="m 53.716846,1029.7735 -13.25,13.25 13.190038,-0.062 0.05996,-13.1875 z"
       id="rog"
       sodipodi:nodetypes="cccc" />
    <g
       id="molik"
       transform="matrix(0.38886759,0,0,0.38886759,23.529336,609.58414)">
      <path
         sodipodi:nodetypes="cssssssssccssssssssccssssssssssssssc"
         id="path4514"
         d="m 29.507046,1018.8848 c -2.88633,-0.01 -5.24925,1.8986 -6.46875,5.5937 -0.64886,1.9661 -1.00481,3.7011 -0.8125,3.8438 0.19231,0.1426 2.04132,1.2778 4.125,2.5312 3.31954,1.9969 4.16028,2.1352 6.75,1.0625 2.48163,-1.0279 3.34802,-0.9833 5.46875,0.4063 3.15468,2.067 8.33621,9.1394 9.1875,12.5312 0.35241,1.4042 0.83633,1.991 1.0625,1.3125 1.20113,-3.6034 -6.41832,-18.8232 -11.90625,-23.7812 -2.59372,-2.3433 -5.16133,-3.4949 -7.40625,-3.5 z m -36.7812502,4.0625 c -5.0700598,0.07 -7.6695798,1.2187 -8.2499998,3.5312 -1.00058,3.9866 1.41092,8.0848 8.8124998,14.9375 7.44184001,6.89 15.94793,12.1316 26.0000002,16 9.43646,3.6315 10.19547,2.9227 1.6875,-1.5625 -12.3505702,-6.5109 -22.9126102,-17.1237 -21.28125019,-21.375 3.43360999,-8.9478 38.76119019,6.6128 47.53125019,20.9375 1.32631,2.1664 1.84106,2.4871 1.84375,1.1875 0.0222,-10.7004 -31.58424,-31.6144 -50.4375002,-33.375 -2.25518,-0.2106 -4.21623,-0.3046 -5.90625,-0.2812 z m 62.2500002,30.1875 c -0.48076,0.021 -0.92355,0.059 -1.3125,0.1562 -1.95399,0.4904 -2.59375,1.2948 -2.59375,3.25 0,2.4463 0.2056,2.5595 3.6875,1.9063 3.35416,-0.6293 3.56038,-0.5349 2.3125,0.9687 -1.98262,2.3889 -7.77358,5.1535 -19.09375,9.0938 -5.46545,1.9024 -12.53581,4.5704 -15.6875,5.9375 -5.09685,2.2107 -5.44236,2.2574 -3.21875,0.4375 1.375,-1.1254 5.77836,-3.9864 9.78125,-6.375 7.69279,-4.5905 7.72182,-5.5938 0.25,-5.5938 -2.85593,0 -5.59624,1.2094 -11.15625,4.875 -12.4845802,8.2308 -15.4054102,12.7897 -9.6562502,15.0938 3.4028402,1.3637 8.0772802,0.2504 20.7812502,-4.9375 6.325,-2.583 14.65,-5.6445 18.5,-6.8125 12.44547,-3.7758 20.78398,-10.7683 17.53125,-14.6875 -1.54035,-1.8561 -6.75965,-3.461 -10.125,-3.3125 z"
         style="fill:url(#linearGradient3649);fill-opacity:1;display:inline" />
      <path
         sodipodi:nodetypes="cccscccs"
         id="path2422"
         d="m -21.479994,1021.2309 c 4.15305,-5.4548 18.2964398,-2.1146 23.8443998,-0.8903 -24.9680698,-0.05 -26.3052998,2.4862 -13.3795498,20.2747 -4.86111,-4.3284 -15.01082,-13.4135 -10.46485,-19.3844 z m 45.41575,-4.9516 c 4.09684,-2.4436 9.50746,-0.1609 11.76381,2.7385 -8.10284,-3.9295 -13.85082,-0.5746 -15.21452,8.6902 -0.90737,-2.3649 -0.95517,-8.8008 3.45071,-11.4287 z"
         style="fill:#dddddd;fill-opacity:0.86666667;display:inline" />
    </g>
  </g>
</svg>
