<?xml version="1.0" encoding="UTF-8" standalone="no"?>
<!-- Created with Inkscape (http://www.inkscape.org/) -->
<svg
   xmlns:dc="http://purl.org/dc/elements/1.1/"
   xmlns:cc="http://creativecommons.org/ns#"
   xmlns:rdf="http://www.w3.org/1999/02/22-rdf-syntax-ns#"
   xmlns:svg="http://www.w3.org/2000/svg"
   xmlns="http://www.w3.org/2000/svg"
   xmlns:xlink="http://www.w3.org/1999/xlink"
   xmlns:sodipodi="http://sodipodi.sourceforge.net/DTD/sodipodi-0.dtd"
   xmlns:inkscape="http://www.inkscape.org/namespaces/inkscape"
   id="svg2"
   sodipodi:version="0.32"
   inkscape:version="0.46"
   width="471"
   height="349"
   version="1.0"
   sodipodi:docname="logo-mol_budujemy.svg"
   style="display:inline"
   inkscape:output_extension="org.inkscape.output.svg.inkscape"
   inkscape:export-filename="W:\bugz\themes\logo.png"
   inkscape:export-xdpi="11.961186"
   inkscape:export-ydpi="11.961186">
  <metadata
     id="metadata7">
    <rdf:RDF>
      <cc:Work
         rdf:about="">
        <dc:format>image/svg+xml</dc:format>
        <dc:type
           rdf:resource="http://purl.org/dc/dcmitype/StillImage" />
      </cc:Work>
    </rdf:RDF>
  </metadata>
  <defs
     id="defs5">
    <linearGradient
       id="linearGradient4551">
      <stop
         id="stop4553"
         offset="0"
         style="stop-color:#25bbf9;stop-opacity:1" />
      <stop
         style="stop-color:#1374a6;stop-opacity:1;"
         offset="0.30000001"
         id="stop4555" />
      <stop
         id="stop4557"
         offset="1"
         style="stop-color:#012d54;stop-opacity:1" />
    </linearGradient>
    <linearGradient
       id="linearGradient4506">
      <stop
         id="stop4508"
         offset="0"
         style="stop-color:#25bbf9;stop-opacity:1" />
      <stop
         style="stop-color:#1374a6;stop-opacity:1;"
         offset="0.28056005"
         id="stop4510" />
      <stop
         id="stop4512"
         offset="1"
         style="stop-color:#012d54;stop-opacity:1" />
    </linearGradient>
    <linearGradient
       id="linearGradient4244"
       inkscape:collect="always">
      <stop
         id="stop4246"
         offset="0"
         style="stop-color:#ffffff;stop-opacity:0" />
      <stop
         style="stop-color:#e9e9e9;stop-opacity:0.41960784;"
         offset="0.16457066"
         id="stop4248" />
      <stop
         id="stop4250"
         offset="1"
         style="stop-color:#b3b3b3;stop-opacity:1" />
    </linearGradient>
    <linearGradient
       id="linearGradient3370">
      <stop
         style="stop-color:#25bbf9;stop-opacity:1"
         offset="0"
         id="stop3372" />
      <stop
         id="stop3378"
         offset="0.32916674"
         style="stop-color:#1374a6;stop-opacity:1;" />
      <stop
         style="stop-color:#012d54;stop-opacity:1"
         offset="1"
         id="stop3374" />
    </linearGradient>
    <inkscape:perspective
       sodipodi:type="inkscape:persp3d"
       inkscape:vp_x="0 : 526.18109 : 1"
       inkscape:vp_y="0 : 1000 : 0"
       inkscape:vp_z="744.09448 : 526.18109 : 1"
       inkscape:persp3d-origin="372.04724 : 350.78739 : 1"
       id="perspective9" />
    <linearGradient
       inkscape:collect="always"
       xlink:href="#linearGradient3370"
       id="linearGradient3376"
       x1="240.47862"
       y1="47.3125"
       x2="240.47862"
       y2="183.4498"
       gradientUnits="userSpaceOnUse"
       gradientTransform="translate(-2,2)" />
    <linearGradient
       inkscape:collect="always"
       xlink:href="#linearGradient4551"
       id="linearGradient4549"
       x1="427.30618"
       y1="3.9687328"
       x2="427.30618"
       y2="68.502304"
       gradientUnits="userSpaceOnUse"
       gradientTransform="translate(-2,2)" />
    <inkscape:perspective
       id="perspective4623"
       inkscape:persp3d-origin="372.04724 : 350.78739 : 1"
       inkscape:vp_z="744.09448 : 526.18109 : 1"
       inkscape:vp_y="0 : 1000 : 0"
       inkscape:vp_x="0 : 526.18109 : 1"
       sodipodi:type="inkscape:persp3d" />
    <linearGradient
       inkscape:collect="always"
       xlink:href="#linearGradient4244"
       id="linearGradient2443"
       gradientUnits="userSpaceOnUse"
       gradientTransform="translate(-2,1.9999924)"
       x1="28.13291"
       y1="224.87094"
       x2="467.75003"
       y2="224.87094" />
    <linearGradient
       inkscape:collect="always"
       xlink:href="#linearGradient4244"
       id="linearGradient2420"
       gradientUnits="userSpaceOnUse"
       gradientTransform="matrix(0.731167,0,0,1,123.139,51.499996)"
       x1="28.13291"
       y1="224.87094"
       x2="467.75003"
       y2="224.87094" />
  </defs>
  <sodipodi:namedview
     inkscape:window-height="480"
     inkscape:window-width="640"
     inkscape:pageshadow="2"
     inkscape:pageopacity="0.0"
     guidetolerance="10.0"
     gridtolerance="10.0"
     objecttolerance="10.0"
     borderopacity="1.0"
     bordercolor="#666666"
     pagecolor="#ffffff"
     id="base"
     showgrid="false"
     inkscape:zoom="1.5479358"
     inkscape:cx="182.372"
     inkscape:cy="166.93985"
     inkscape:current-layer="layer7"
     showguides="false" />
  <g
     inkscape:groupmode="layer"
     id="layer1"
     inkscape:label="wek"
     style="display:inline">
    <g
       inkscape:groupmode="layer"
       id="layer8"
       inkscape:label="budujemy pb">
      <g
         inkscape:groupmode="layer"
         id="layer10"
         inkscape:label="cień bpb"
         style="display:inline" />
      <g
         inkscape:groupmode="layer"
         id="layer9"
         inkscape:label="napis"
         style="display:inline" />
    </g>
    <g
       inkscape:groupmode="layer"
       id="layer7"
       inkscape:label="bug"
       style="display:inline">
      <path
         style="fill:url(#linearGradient4549);fill-opacity:1;display:inline"
         d="M 432.4375,5.96875 C 429.55117,5.9621351 427.18825,7.8673981 425.96875,11.5625 C 425.31989,13.528573 424.96394,15.263612 425.15625,15.40625 C 425.34856,15.548888 427.19757,16.684038 429.28125,17.9375 C 432.60079,19.934406 433.44153,20.072696 436.03125,19 C 438.51288,17.972076 439.37927,18.016699 441.5,19.40625 C 444.65468,21.473275 449.83621,28.545683 450.6875,31.9375 C 451.03991,33.34164 451.52383,33.928482 451.75,33.25 C 452.95113,29.646617 445.33168,14.426768 439.84375,9.46875 C 437.25003,7.1254822 434.68242,5.9738949 432.4375,5.96875 z M 395.65625,10.03125 C 390.58619,10.101422 387.98667,11.24994 387.40625,13.5625 C 386.40567,17.549111 388.81717,21.647271 396.21875,28.5 C 403.66059,35.390003 412.16668,40.631636 422.21875,44.5 C 431.65521,48.131455 432.41422,47.422668 423.90625,42.9375 C 411.55568,36.426612 400.99364,25.813769 402.625,21.5625 C 406.05861,12.614662 441.38619,28.17526 450.15625,42.5 C 451.48256,44.666354 451.99731,44.987067 452,43.6875 C 452.02223,32.987121 420.41576,12.073045 401.5625,10.3125 C 399.30732,10.101908 397.34627,10.007859 395.65625,10.03125 z M 457.90625,40.21875 C 457.42549,40.239962 456.9827,40.277379 456.59375,40.375 C 454.63976,40.865422 454,41.66976 454,43.625 C 454,46.071328 454.2056,46.184456 457.6875,45.53125 C 461.04166,44.902004 461.24788,44.996391 460,46.5 C 458.01738,48.888909 452.22642,51.65346 440.90625,55.59375 C 435.4408,57.49615 428.37044,60.164212 425.21875,61.53125 C 420.1219,63.741982 419.77639,63.788699 422,61.96875 C 423.375,60.843359 427.77836,57.982358 431.78125,55.59375 C 439.47404,51.003302 439.50307,50 432.03125,50 C 429.17532,50 426.43501,51.2094 420.875,54.875 C 408.39042,63.105827 405.46959,67.664724 411.21875,69.96875 C 414.62159,71.332468 419.29603,70.219179 432,65.03125 C 438.325,62.448306 446.65,59.386773 450.5,58.21875 C 462.94547,54.443009 471.28398,47.450537 468.03125,43.53125 C 466.4909,41.675233 461.2716,40.070265 457.90625,40.21875 z"
         id="path4514"
         sodipodi:nodetypes="cssssssssccssssssssccssssssssssssssc" />
      <path
         style="opacity:1;fill:#dddddd;fill-opacity:0.86666667;display:inline"
         d="M 381.45046,8.3148589 C 385.60351,2.860054 399.7469,6.2002239 405.29486,7.4245665 C 380.32679,7.3740535 378.98956,9.9108099 391.91531,27.699278 C 387.0542,23.370889 376.90449,14.285746 381.45046,8.3148589 z M 426.86621,3.363283 C 430.96305,0.9196789 436.37367,3.2023373 438.63002,6.1017789 C 430.52718,2.1722229 424.7792,5.5271592 423.4155,14.791976 C 422.50813,12.427078 422.46033,5.9912143 426.86621,3.363283 z"
         id="path2422"
         sodipodi:nodetypes="cccscccs" />
    </g>
    <g
       inkscape:groupmode="layer"
       id="layer6"
       inkscape:label="MOL"
       style="display:inline">
      <g
         inkscape:groupmode="layer"
         id="layer12"
         inkscape:label="napis MOL"
         style="display:inline">
        <path
           style="fill:#169edb;display:inline"
           d="M 369,49.3125 C 356.52429,49.312501 352.5,54.36852 352.5,60.8125 L 352.71875,147.03125 C 352.97754,152.37187 354.0702,157.60845 356.75,162.25 C 364.36506,175.43968 378.13214,184.65625 400.46875,184.65625 L 448.15625,184.65625 C 453.09463,184.65625 458.09375,182.65177 458.09375,175.3125 C 458.09374,167.85906 453.18489,166 448.15625,166 L 403.5,166 C 391.98353,166 385.84375,157.09718 385.84375,149.28125 L 385.5,60.8125 C 385.5,54.14057 381.3615,49.3125 369,49.3125 z M 78.5,50.25 C 47.560832,50.25 25.9375,62.85188 25.9375,95.21875 L 25.9375,176.25 C 25.9375,180.95873 29.142319,185.40625 42.46875,185.40625 C 55.844238,185.40625 59,180.64232 59,176.25 L 59.25,88.21875 C 59.322158,62.63102 97.781252,63.01648 97.78125,88.21875 L 97.78125,176.25 C 97.78125,181.29248 100.71013,185.40625 114.875,185.40625 C 129.05275,185.40625 131.96875,181.15837 131.96875,176.25 L 131.96875,88.21875 C 131.96875,63.22307 170.375,62.56516 170.375,88.21875 L 170.375,176.25 C 170.375,181.09032 173.92367,185.40625 187.125,185.40625 C 200.3442,185.40625 203.90625,180.64055 203.90625,176.25 L 203.90625,95.21875 C 203.90625,63.60953 181.46941,50.25 151.15625,50.25 C 137.83535,50.25 125.20829,52.7898 114.875,59.125 C 104.30788,52.19243 94.36495,50.25 78.5,50.25 z M 277.40625,50.34375 C 240.02122,50.343748 225.5,69.49018 225.5,90.3125 L 225.5,141.53125 C 225.5,164.57683 237.66817,184.16268 275.3125,184.875 C 313.18515,185.59164 330.5,166.74818 330.5,141.53125 L 330,90.3125 C 330,69.50283 315.24808,50.34375 277.40625,50.34375 z M 277.84375,69.75 C 287.61255,69.59091 297.375,75.34481 297.375,87.75 L 297.625,148.53125 C 297.625,172.29459 258.5625,170.80099 258.5625,148.53125 L 258.3125,87.125 C 258.3125,75.9772 268.07495,69.90909 277.84375,69.75 z"
           id="path2563" />
      </g>
      <g
         inkscape:groupmode="layer"
         id="layer11"
         inkscape:label="cień MOL"
         style="display:inline">
        <path
           sodipodi:type="inkscape:offset"
           inkscape:radius="5.024869"
           inkscape:original="M 369 49.3125 C 356.52429 49.312501 352.5 54.36852 352.5 60.8125 L 352.71875 147.03125 C 352.97754 152.37187 354.0702 157.60845 356.75 162.25 C 364.36506 175.43968 378.13214 184.65625 400.46875 184.65625 L 448.15625 184.65625 C 453.09463 184.65625 458.09375 182.65177 458.09375 175.3125 C 458.09374 167.85906 453.18489 166 448.15625 166 L 403.5 166 C 391.98353 166 385.84375 157.09718 385.84375 149.28125 L 385.5 60.8125 C 385.5 54.14057 381.3615 49.3125 369 49.3125 z M 78.5 50.25 C 47.560832 50.25 25.9375 62.85188 25.9375 95.21875 L 25.9375 176.25 C 25.9375 180.95873 29.142319 185.40625 42.46875 185.40625 C 55.844238 185.40625 59 180.64232 59 176.25 L 59.25 88.21875 C 59.322158 62.63102 97.781252 63.01648 97.78125 88.21875 L 97.78125 176.25 C 97.78125 181.29248 100.71013 185.40625 114.875 185.40625 C 129.05275 185.40625 131.96875 181.15837 131.96875 176.25 L 131.96875 88.21875 C 131.96875 63.22307 170.375 62.56516 170.375 88.21875 L 170.375 176.25 C 170.375 181.09032 173.92367 185.40625 187.125 185.40625 C 200.3442 185.40625 203.90625 180.64055 203.90625 176.25 L 203.90625 95.21875 C 203.90625 63.60953 181.46941 50.25 151.15625 50.25 C 137.83535 50.25 125.20829 52.7898 114.875 59.125 C 104.30788 52.19243 94.36495 50.25 78.5 50.25 z M 277.40625 50.34375 C 240.02122 50.343748 225.5 69.49018 225.5 90.3125 L 225.5 141.53125 C 225.5 164.57683 237.66817 184.16268 275.3125 184.875 C 313.18515 185.59164 330.5 166.74818 330.5 141.53125 L 330 90.3125 C 330 69.50283 315.24808 50.34375 277.40625 50.34375 z M 277.84375 69.75 C 287.61255 69.59091 297.375 75.34481 297.375 87.75 L 297.625 148.53125 C 297.625 172.29459 258.5625 170.80099 258.5625 148.53125 L 258.3125 87.125 C 258.3125 75.9772 268.07495 69.90909 277.84375 69.75 z "
           xlink:href="#path2595"
           style="fill:#dddddd;fill-opacity:0.86666667;display:inline"
           id="path2598"
           inkscape:href="#path2595"
           d="M 369,43.28125 C 362.08334,43.281251 356.74221,44.655702 352.90625,47.75 C 349.07029,50.844298 347.46875,55.544493 347.46875,59.8125 L 347.6875,146.03125 C 347.68543,146.11457 347.68543,146.19793 347.6875,146.28125 C 347.9717,152.14623 349.20392,158.2034 352.40625,163.75 C 360.82572,178.33296 376.74989,188.6875 400.46875,188.6875 L 448.15625,188.6875 C 451.3053,188.6875 454.90838,188.12263 458.03125,185.75 C 461.15412,183.37737 463.125,179.12303 463.125,174.3125 C 463.12499,169.48265 461.18064,165.2136 458.03125,162.84375 C 454.88186,160.4739 451.28979,159.96875 448.15625,159.96875 L 403.5,159.96875 C 394.57318,159.96875 390.875,153.46567 390.875,148.28125 C 390.87503,148.27083 390.87503,148.26042 390.875,148.25 L 390.53125,59.78125 C 390.53125,55.406334 388.86782,50.685015 385,47.625 C 381.13218,44.564985 375.83494,43.28125 369,43.28125 z M 78.5,44.21875 C 62.348187,44.21875 48.059717,47.454566 37.53125,55.625 C 27.002783,63.795434 20.90625,76.916327 20.90625,94.21875 L 20.90625,175.25 C 20.90625,178.74436 22.560379,183.11093 26.34375,185.71875 C 30.127121,188.32657 35.24654,189.4375 42.46875,189.4375 C 49.753061,189.4375 54.912512,188.2096 58.65625,185.5625 C 62.399988,182.9154 64.03125,178.64957 64.03125,175.25 L 64.28125,87.21875 C 64.29574,82.080592 66.055974,78.907434 68.625,76.65625 C 71.194026,74.405066 74.824277,73.168941 78.53125,73.1875 C 82.238223,73.206059 85.861507,74.478462 88.4375,76.75 C 91.013493,79.021538 92.75,82.196188 92.75,87.21875 L 92.75,175.25 C 92.75,178.74412 94.348914,183.3208 98.25,185.90625 C 102.15109,188.4917 107.30612,189.4375 114.875,189.4375 C 122.46572,189.4375 127.64697,188.44575 131.53125,185.84375 C 135.41553,183.24175 137,178.69926 137,175.25 L 137,87.21875 C 137,82.256628 138.70514,79.115984 141.28125,76.84375 C 143.85736,74.571516 147.52229,73.281661 151.21875,73.25 C 154.91521,73.218339 158.51683,74.4254 161.0625,76.65625 C 163.60817,78.8871 165.34375,82.05915 165.34375,87.21875 L 165.34375,175.25 C 165.34375,178.89815 167.19554,183.298 171.03125,185.84375 C 174.86696,188.3895 179.97674,189.4375 187.125,189.4375 C 194.33844,189.4375 199.52599,188.2163 203.3125,185.625 C 207.09901,183.0337 208.9375,178.80417 208.9375,175.25 L 208.9375,94.21875 C 208.9375,77.225223 202.57859,64.13713 191.96875,55.90625 C 181.35891,47.67537 167.05101,44.21875 151.15625,44.21875 C 138.26029,44.21875 125.77885,46.65697 114.96875,52.5 C 104.40117,46.319704 93.523243,44.21875 78.5,44.21875 z M 277.40625,44.3125 C 257.85592,44.312499 243.53436,49.379857 234.09375,57.78125 C 224.65314,66.182643 220.46875,77.733247 220.46875,89.3125 L 220.46875,140.53125 C 220.46875,152.93842 223.84033,165.0794 232.71875,174.09375 C 241.59717,183.1081 255.53583,188.5338 275.21875,188.90625 C 295.00248,189.2806 310.13184,184.53583 320.375,175.75 C 330.61816,166.96417 335.53125,154.2898 335.53125,140.53125 C 335.53138,140.51042 335.53138,140.48958 335.53125,140.46875 L 335.03125,89.25 C 335.03125,77.657793 330.77753,66.142368 321.21875,57.75 C 311.65997,49.357632 297.17518,44.3125 277.40625,44.3125 z M 277.9375,73.78125 C 281.80848,73.718209 285.52981,74.858436 288.09375,76.9375 C 290.65769,79.016564 292.34375,81.865537 292.34375,86.75 C 292.34372,86.760417 292.34372,86.770833 292.34375,86.78125 L 292.59375,147.5625 C 292.59375,152.12668 290.99533,154.72554 288.4375,156.71875 C 285.87967,158.71196 282.08393,159.85574 278.1875,159.78125 C 274.29107,159.70676 270.41425,158.4291 267.78125,156.34375 C 265.14825,154.2584 263.59375,151.6297 263.59375,147.53125 C 263.59378,147.52083 263.59378,147.51042 263.59375,147.5 L 263.34375,86.09375 C 263.34375,81.986658 264.92437,79.361236 267.5625,77.25 C 270.20063,75.138764 274.06587,73.844301 277.9375,73.78125 z" />
        <path
           id="path2595"
           d="M 369,49.3125 C 356.52429,49.312501 352.5,54.36852 352.5,60.8125 L 352.71875,147.03125 C 352.97754,152.37187 354.0702,157.60845 356.75,162.25 C 364.36506,175.43968 378.13214,184.65625 400.46875,184.65625 L 448.15625,184.65625 C 453.09463,184.65625 458.09375,182.65177 458.09375,175.3125 C 458.09374,167.85906 453.18489,166 448.15625,166 L 403.5,166 C 391.98353,166 385.84375,157.09718 385.84375,149.28125 L 385.5,60.8125 C 385.5,54.14057 381.3615,49.3125 369,49.3125 z M 78.5,50.25 C 47.560832,50.25 25.9375,62.85188 25.9375,95.21875 L 25.9375,176.25 C 25.9375,180.95873 29.142319,185.40625 42.46875,185.40625 C 55.844238,185.40625 59,180.64232 59,176.25 L 59.25,88.21875 C 59.322158,62.63102 97.781252,63.01648 97.78125,88.21875 L 97.78125,176.25 C 97.78125,181.29248 100.71013,185.40625 114.875,185.40625 C 129.05275,185.40625 131.96875,181.15837 131.96875,176.25 L 131.96875,88.21875 C 131.96875,63.22307 170.375,62.56516 170.375,88.21875 L 170.375,176.25 C 170.375,181.09032 173.92367,185.40625 187.125,185.40625 C 200.3442,185.40625 203.90625,180.64055 203.90625,176.25 L 203.90625,95.21875 C 203.90625,63.60953 181.46941,50.25 151.15625,50.25 C 137.83535,50.25 125.20829,52.7898 114.875,59.125 C 104.30788,52.19243 94.36495,50.25 78.5,50.25 z M 277.40625,50.34375 C 240.02122,50.343748 225.5,69.49018 225.5,90.3125 L 225.5,141.53125 C 225.5,164.57683 237.66817,184.16268 275.3125,184.875 C 313.18515,185.59164 330.5,166.74818 330.5,141.53125 L 330,90.3125 C 330,69.50283 315.24808,50.34375 277.40625,50.34375 z M 277.84375,69.75 C 287.61255,69.59091 297.375,75.34481 297.375,87.75 L 297.625,148.53125 C 297.625,172.29459 258.5625,170.80099 258.5625,148.53125 L 258.3125,87.125 C 258.3125,75.9772 268.07495,69.90909 277.84375,69.75 z"
           style="fill:url(#linearGradient3376);fill-opacity:1;display:inline" />
      </g>
    </g>
  </g>
</svg>
